<?xml version="1.0" encoding="iso-8859-1"?>
<!-- Generator: Adobe Illustrator 19.0.0, SVG Export Plug-In . SVG Version: 6.00 Build 0)  -->
<svg version="1.1" id="Layer_1" xmlns="http://www.w3.org/2000/svg" xmlns:xlink="http://www.w3.org/1999/xlink" x="0px" y="0px"
	 viewBox="0 0 512 512" style="enable-background:new 0 0 512 512;" xml:space="preserve">
<g>
	<g>
		<g>
			<path d="M394.667,0c-64.688,0-117.333,52.635-117.333,117.333s52.646,117.333,117.333,117.333S512,182.031,512,117.333
				S459.354,0,394.667,0z M394.667,213.333c-52.938,0-96-43.063-96-96s43.063-96,96-96s96,43.063,96,96
				S447.604,213.333,394.667,213.333z"/>
			<path d="M17.979,2.896C14.875-0.01,10.313-0.802,6.438,0.875C2.521,2.563,0,6.406,0,10.667v490.667
				c0,4.313,2.604,8.208,6.583,9.854C7.896,511.74,9.292,512,10.667,512c2.771,0,5.5-1.083,7.542-3.125l146.208-146.208h208.917
				c4.375,0,8.313-2.667,9.917-6.74c1.604-4.063,0.583-8.698-2.604-11.698L17.979,2.896z M160,341.333
				c-2.833,0-5.542,1.125-7.542,3.125L21.333,475.583V35.354l325.104,305.979H160z"/>
		</g>
	</g>
</g>
<g>
</g>
<g>
</g>
<g>
</g>
<g>
</g>
<g>
</g>
<g>
</g>
<g>
</g>
<g>
</g>
<g>
</g>
<g>
</g>
<g>
</g>
<g>
</g>
<g>
</g>
<g>
</g>
<g>
</g>
</svg>
